{"title":"Mickey Virus 2013 Hindi Movies PDVDRip XviD with Sample ~ â˜»rDXâ˜»","uid":9117233,"size":741496522,"categoryP":"video","categoryS":"movies","magnet":"?xt=urn:btih:bf4882ed3c88c8f2c0d53585120d9ae512f04606&amp;dn=Mickey+Virus+2013+Hindi+Movies+PDVDRip+XviD+with+Sample+%7E+%E2%98%BBrDX%E2%98%BB&amp;tr=udp%3A%2F%2Ftracker.openbittorrent.com%3A80&amp;tr=udp%3A%2F%2Fopen.demonii.com%3A1337&amp;tr=udp%3A%2F%2Ftracker.coppersurfer.tk%3A6969&amp;tr=udp%3A%2F%2Fexodus.desync.com%3A6969","seeders":1,"leechers":1,"uploader":"basicssom","files":2,"time":1383051704,"description":" &lt;a href=&quot;http://s5.postimg.org/hgeuxszk7/logo.png&quot; rel=&quot;nofollow&quot; target=&quot;_NEW&quot;&gt;http://s5.postimg.org/hgeuxszk7/logo.png&lt;/a&gt;\n\nMickey Virus 2013 Hindi Movies PDVDRip XviD with Sample ~ â˜»rDXâ˜»\n\nPlease check SCREEN SHOTS first :\n &lt;a href=&quot;\nhttp://myimghost.cwahi.net/2013/10/MickeyVirusPD/1.html&quot; rel=&quot;nofollow&quot; target=&quot;_NEW&quot;&gt;\nhttp://myimghost.cwahi.net/2013/10/MickeyVirusPD/1.html&lt;/a&gt; &lt;a href=&quot;\nhttp://myimghost.cwahi.net/2013/10/MickeyVirusPD/2.html&quot; rel=&quot;nofollow&quot; target=&quot;_NEW&quot;&gt;\nhttp://myimghost.cwahi.net/2013/10/MickeyVirusPD/2.html&lt;/a&gt; &lt;a href=&quot;\nhttp://myimghost.cwahi.net/2013/10/MickeyVirusPD/3.html&quot; rel=&quot;nofollow&quot; target=&quot;_NEW&quot;&gt;\nhttp://myimghost.cwahi.net/2013/10/MickeyVirusPD/3.html&lt;/a&gt; &lt;a href=&quot;\nhttp://myimghost.cwahi.net/2013/10/MickeyVirusPD/4.html&quot; rel=&quot;nofollow&quot; target=&quot;_NEW&quot;&gt;\nhttp://myimghost.cwahi.net/2013/10/MickeyVirusPD/4.html&lt;/a&gt; &lt;a href=&quot;\nhttp://myimghost.cwahi.net/2013/10/MickeyVirusPD/5.html&quot; rel=&quot;nofollow&quot; target=&quot;_NEW&quot;&gt;\nhttp://myimghost.cwahi.net/2013/10/MickeyVirusPD/5.html&lt;/a&gt; &lt;a href=&quot;\nhttp://myimghost.cwahi.net/2013/10/MickeyVirusPD/6.html&quot; rel=&quot;nofollow&quot; target=&quot;_NEW&quot;&gt;\nhttp://myimghost.cwahi.net/2013/10/MickeyVirusPD/6.html&lt;/a&gt;\n\nAll rDX torrents are Seeding From the 1Gbps Seedbox 24X7\n &lt;a href=&quot;\nhttp://s5.postimg.org/hrhr17fgn/image.jpg&quot; rel=&quot;nofollow&quot; target=&quot;_NEW&quot;&gt;\nhttp://s5.postimg.org/hrhr17fgn/image.jpg&lt;/a&gt;\n &lt;a href=&quot;\nhttp://s5.postimg.org/fcpvgrz7r/image.jpg&quot; rel=&quot;nofollow&quot; target=&quot;_NEW&quot;&gt;\nhttp://s5.postimg.org/fcpvgrz7r/image.jpg&lt;/a&gt;\n &lt;a href=&quot;\nhttp://s5.postimg.org/s2u3tv75z/image.jpg&quot; rel=&quot;nofollow&quot; target=&quot;_NEW&quot;&gt;\nhttp://s5.postimg.org/s2u3tv75z/image.jpg&lt;/a&gt;\n\nFormat                                   : AVI\nFormat/Info                              : Audio Video Interleave\nFile size                                : 699 MiB\nDuration                                 : 2h 7mn\nOverall bit rate                         : 767 Kbps\nWriting library                          : MPlayer\n\nVideo\nID                                       : 0\nFormat                                   : MPEG-4 Visual\nFormat profile                           : Advanced Simple@L5\nFormat settings, BVOP                    : 1\nFormat settings, QPel                    : No\nFormat settings, GMC                     : No warppoints\nFormat settings, Matrix                  : Default (H.263)\nMuxing mode                              : Packed bitstream\nCodec ID                                 : XVID\nCodec ID/Hint                            : XviD\nDuration                                 : 2h 7mn\nBit rate                                 : 682 Kbps\nWidth                                    : 640 pixels\nHeight                                   : 272 pixels\nDisplay aspect ratio                     : 2.35:1\nFrame rate                               : 25.000 fps\nColor space                              : YUV\nChroma subsampling                       : 4:2:0\nBit depth                                : 8 bits\nScan type                                : Progressive\nCompression mode                         : Lossy\nBits/(Pixel*Frame)                       : 0.157\nStream size                              : 621 MiB (89%)\nWriting library                          : XviD 1.2.1 (UTC 2008-12-04)\n\nAudio\nID                                       : 1\nFormat                                   : MPEG Audio\nFormat version                           : Version 1\nFormat profile                           : Layer 3\nMode                                     : Joint stereo\nMode extension                           : MS Stereo\nCodec ID                                 : 55\nCodec ID/Hint                            : MP3\nDuration                                 : 2h 7mn\nBit rate mode                            : Constant\nBit rate                                 : 80.0 Kbps\nChannel(s)                               : 2 channels\nSampling rate                            : 32.0 KHz\nCompression mode                         : Lossy\nStream size                              : 72.9 MiB (10%)\nAlignment                                : Split accross interleaves\nInterleave, duration                     : 500 ms (12.50 video frames)\nInterleave, preload duration             : 500 ms\nWriting library                          : LAME3.99r\nEncoding settings                        : -m j -V 4 -q 2 -lowpass 13.5 -b 80","torrent":{"xt":"urn:btih:bf4882ed3c88c8f2c0d53585120d9ae512f04606","amp;dn":"Mickey+Virus+2013+Hindi+Movies+PDVDRip+XviD+with+Sample+%7E+%E2%98%BBrDX%E2%98%BB","amp;tr":["udp%3A%2F%2Ftracker.openbittorrent.com%3A80","udp%3A%2F%2Fopen.demonii.com%3A1337","udp%3A%2F%2Ftracker.coppersurfer.tk%3A6969","udp%3A%2F%2Fexodus.desync.com%3A6969"],"infoHash":"bf4882ed3c88c8f2c0d53585120d9ae512f04606","infoHashBuffer":{"type":"Buffer","data":[191,72,130,237,60,136,200,242,192,213,53,133,18,13,154,229,18,240,70,6]},"announce":[],"urlList":[]}}